# Blender v3.2.1 OBJ File: 'gate1.blend'
# www.blender.org
mtllib gate1.mtl
o Cylinder.005_Cylinder.006
v 16.982918 -0.011938 16.840645
v 17.124069 -0.020797 16.980806
v 19.925220 0.011940 13.261799
v 20.116432 0.006760 13.407372
v 17.085243 4.993038 16.960516
v 20.027546 5.016915 13.381668
v 17.226395 4.984179 17.100677
v 20.218754 5.011735 13.527242
v 17.226395 4.984179 17.100677
v 17.124069 -0.020797 16.980806
v 17.085243 4.993038 16.960516
v 16.982918 -0.011938 16.840645
v 17.226395 4.984179 17.100677
v 17.124069 -0.020797 16.980806
v 17.085243 4.993038 16.960516
v 16.982918 -0.011938 16.840645
v 22.859768 0.044233 9.408427
v 23.050976 0.039053 9.554001
v 23.153301 5.044029 9.673870
v 22.962090 5.049209 9.528297
v 13.809133 4.971640 20.541281
v 13.706809 -0.033336 20.421413
v 13.667980 4.980499 20.401119
v 13.565657 -0.024477 20.281250
v 18.567650 -0.003000 15.044433
v 18.758862 -0.008180 15.190006
v 18.669975 5.001976 15.164303
v 18.861183 4.996796 15.309875
v 17.226395 4.984179 17.100677
v 17.124069 -0.020797 16.980806
v 17.085243 4.993038 16.960516
v 16.982918 -0.011938 16.840645
v 18.922386 4.990402 15.393100
v 18.820065 -0.014574 15.273230
v 18.781235 4.999260 15.252937
v 18.678909 -0.005715 15.133069
vt 0.385344 0.180720
vt 0.770689 0.570591
vt 0.385345 0.570837
vt 0.000000 0.180474
vt 0.385344 0.000246
vt 0.385344 0.180720
vt 0.000000 0.570591
vt 0.973118 0.499866
vt 0.973118 0.000000
vt 0.973118 0.000000
vt 0.973118 0.499866
vt 0.000000 0.000000
vt 0.000000 0.000000
vt 0.000000 0.000000
vt 0.000000 0.000000
vt 0.004369 0.986184
vt 0.025139 0.987951
vt 0.025139 0.987951
vt 0.004369 0.986184
vt 0.973118 0.000000
vt 0.973118 0.499866
vt 0.000000 0.000070
vt 0.000000 0.499936
vt 0.000000 0.499936
vt 0.000000 0.000070
vt 0.004369 0.986184
vt 0.025139 0.987951
vt 0.000000 0.000000
vt 0.000000 0.000000
vt 0.000000 0.499936
vt 0.000000 0.000070
vt 1.000000 0.000000
vt 0.983930 0.391412
vt 0.983930 0.000000
vt 0.998284 0.000295
vt 0.973118 0.499866
vt 0.973118 0.000000
vt 0.998284 0.500161
vt 0.983930 0.180864
vt 0.964530 0.571821
vt 0.964530 0.180863
vt 0.025139 0.499936
vt 0.000000 0.501100
vt 0.000000 0.501100
vt 0.025139 0.499936
vt 0.000000 0.000000
vt 0.000000 0.000000
vt 0.973118 0.000000
vt 0.025139 0.987951
vt 0.770689 0.961407
vt 0.385344 0.570932
vt 0.770689 0.570837
vt 0.000000 0.961407
vt 0.385345 0.570932
vt 0.385345 0.961502
vt 0.004369 0.986184
vt 0.983930 0.957166
vt 0.964530 0.572049
vt 0.983930 0.571821
vt 0.770689 0.180474
vt 0.385344 0.000246
vt 0.770689 0.000000
vt 0.770689 0.770785
vt 0.790089 0.951648
vt 0.770689 0.951649
vt 0.983930 0.000000
vt 0.000000 0.000000
vt 0.000000 0.000000
vt 0.790090 0.965043
vt 0.806159 0.770785
vt 0.806159 0.965043
vt 0.000000 0.000070
vt 0.000000 0.499936
vt 0.973118 0.499866
vt 0.973118 0.000000
vt 0.004369 0.986184
vt 0.025139 0.987951
vt 0.983930 0.391565
vt 1.000000 0.776757
vt 0.983930 0.776910
vt 0.770689 0.385344
vt 0.964530 0.000048
vt 0.964530 0.385392
vt 0.964530 0.770737
vt 0.770689 0.385440
vt 0.964530 0.385392
vt 0.806159 0.770785
vt 0.822229 0.965043
vt 0.806159 0.965043
vt 0.000000 0.000000
vt 0.385344 0.570837
vt 1.000000 0.391412
vt 0.983930 0.571821
vt 0.385344 0.961502
vt 0.000000 0.570837
vt 0.964530 0.957393
vt 0.790090 0.770785
vt 0.964530 0.000000
vt 0.790089 0.770785
vt 1.000000 0.391412
vt 0.770689 0.000000
vt 0.770689 0.770785
vt 0.822229 0.770785
vn -0.7953 0.0308 -0.6054
vn 0.7953 -0.0308 0.6054
vn 0.0000 0.0000 1.0000
vn 0.0297 0.9990 0.0332
vn -0.6059 -0.0067 0.7955
vn -0.6058 -0.0067 0.7956
vn 0.0131 0.9997 0.0184
vn -0.0131 -0.9997 -0.0184
vn 0.7047 0.0026 -0.7095
vn -0.7092 0.0314 -0.7043
vn 0.7092 -0.0314 0.7043
vn -0.0297 -0.9990 -0.0332
vn 0.6059 0.0067 -0.7955
vn -0.7047 -0.0026 0.7095
vn 0.6058 0.0067 -0.7956
usemtl Material.006
s off
f 4/1/1 19/2/1 18/3/1
f 6/4/2 25/5/2 3/6/2
f 3/6/2 20/7/2 6/4/2
f 1/8/3 5/9/3 11/10/3 12/11/3
f 2/12/3 1/13/3 12/14/3 10/15/3
f 11/16/3 9/17/3 13/18/3 15/19/3
f 12/11/3 11/10/3 15/20/3 16/21/3
f 7/22/3 2/23/3 10/24/3 9/25/3
f 5/26/3 7/27/3 9/17/3 11/16/3
f 10/15/3 12/14/3 16/28/3 14/29/3
f 9/25/3 10/24/3 14/30/3 13/31/3
f 16/32/4 22/33/4 14/34/4
f 18/35/5 20/36/5 17/37/5
f 18/35/6 19/38/6 20/36/6
f 4/39/7 17/40/7 3/41/7
f 8/42/8 6/43/8 20/44/8 19/45/8
f 22/46/9 24/47/9 23/48/9 21/49/9
f 13/50/10 22/51/10 21/52/10
f 15/53/11 24/54/11 16/55/11
f 15/19/12 13/18/12 21/49/12 23/56/12
f 26/57/13 27/58/13 28/59/13
f 8/60/1 26/61/1 28/62/1
f 6/63/8 28/64/8 27/65/8
f 3/41/7 26/66/7 4/39/7
f 16/28/3 14/29/3 30/67/3 32/68/3
f 30/69/4 36/70/4 32/71/4
f 14/30/3 13/31/3 29/72/3 30/73/3
f 15/20/3 16/21/3 32/74/3 31/75/3
f 13/18/3 15/19/3 31/76/3 29/77/3
f 33/78/14 36/79/14 34/80/14
f 30/81/10 33/82/10 34/83/10
f 32/84/11 35/85/11 31/86/11
f 29/87/12 35/88/12 33/89/12
f 4/1/1 8/60/1 19/2/1
f 6/4/2 27/90/2 25/5/2
f 3/6/2 17/91/2 20/7/2
f 16/32/4 24/92/4 22/33/4
f 4/39/7 18/93/7 17/40/7
f 13/50/10 14/94/10 22/51/10
f 15/53/11 23/95/11 24/54/11
f 26/57/15 25/96/15 27/58/15
f 8/60/1 4/1/1 26/61/1
f 6/63/8 8/97/8 28/64/8
f 3/41/7 25/98/7 26/66/7
f 30/69/4 34/99/4 36/70/4
f 33/78/14 35/100/14 36/79/14
f 30/81/10 29/101/10 33/82/10
f 32/84/11 36/102/11 35/85/11
f 29/87/12 31/103/12 35/88/12
